<svg width="32" height="32" fill="none" xmlns="http://www.w3.org/2000/svg"><path d="M16 1c2.525 0 4.586.03 6.183.089 1.361.059 2.574.296 3.64.71a7.55 7.55 0 012.662 1.716 7.55 7.55 0 011.716 2.663c.414 1.065.651 2.278.71 3.639.06 1.597.089 3.658.089 6.183s-.03 4.586-.089 6.183c-.059 1.361-.296 2.574-.71 3.64a7.55 7.55 0 01-1.716 2.662 7.55 7.55 0 01-2.662 1.716c-1.066.414-2.279.651-3.64.71-1.597.06-3.658.089-6.183.089s-4.586-.03-6.183-.089c-1.361-.059-2.574-.296-3.64-.71a7.55 7.55 0 01-2.662-1.716 7.55 7.55 0 01-1.716-2.662c-.414-1.066-.651-2.279-.71-3.64C1.029 20.586 1 18.525 1 16s.03-4.586.089-6.183c.059-1.361.296-2.574.71-3.64a7.55 7.55 0 011.716-2.662 7.55 7.55 0 012.663-1.716c1.065-.414 2.278-.651 3.639-.71C11.414 1.029 13.475 1 16 1zm0 1.953c-2.623 0-4.763.03-6.42.088a9.498 9.498 0 00-2.959.563C5.201 4.195 4.195 5.2 3.604 6.62a9.498 9.498 0 00-.564 2.96A187.83 187.83 0 002.952 16c0 2.623.03 4.763.088 6.42a9.498 9.498 0 00.563 2.959c.591 1.42 1.597 2.426 3.017 3.017a9.5 9.5 0 002.959.563c1.657.059 3.797.088 6.42.088 2.623 0 4.763-.03 6.42-.088a9.5 9.5 0 002.959-.563c1.42-.591 2.426-1.597 3.017-3.017a9.5 9.5 0 00.563-2.959c.059-1.657.088-3.797.088-6.42 0-2.623-.03-4.763-.088-6.42a9.5 9.5 0 00-.563-2.959c-.591-1.42-1.597-2.426-3.017-3.017a9.498 9.498 0 00-2.959-.563A187.08 187.08 0 0016 2.953zm0 19.053c1.657 0 3.072-.587 4.246-1.76 1.173-1.174 1.76-2.59 1.76-4.246 0-1.657-.587-3.072-1.76-4.246-1.174-1.173-2.59-1.76-4.246-1.76-1.657 0-3.072.587-4.246 1.76-1.173 1.174-1.76 2.59-1.76 4.246 0 1.657.587 3.072 1.76 4.246 1.174 1.173 2.59 1.76 4.246 1.76zm0-13.698c2.13 0 3.945.75 5.444 2.248 1.499 1.5 2.248 3.314 2.248 5.444s-.75 3.945-2.248 5.444c-1.5 1.499-3.314 2.248-5.444 2.248s-3.945-.75-5.444-2.248C9.057 19.944 8.308 18.13 8.308 16s.75-3.945 2.248-5.444c1.5-1.499 3.314-2.248 5.444-2.248zm9.823-.296c0 .493-.178.912-.533 1.257a1.797 1.797 0 01-1.302.518c-.493 0-.912-.173-1.257-.518a1.712 1.712 0 01-.518-1.257c0-.513.173-.947.518-1.302a1.688 1.688 0 011.257-.532c.493 0 .922.182 1.287.547.365.365.548.794.548 1.287z" fill="#C5C5C5" stroke="#C5C5C5"/></svg>