<svg width="31" height="32" fill="none" xmlns="http://www.w3.org/2000/svg"><path d="M21.074 18.086a7.525 7.525 0 00-1.333-1.141 10.736 10.736 0 003.898-6.097 1.363 1.363 0 10-2.659-.605 7.99 7.99 0 01-4.118 5.322v-5.017a1.305 1.305 0 00-.06-.294 1.393 1.393 0 00-.048-.233 1.35 1.35 0 00-.228-.341c-.024-.028-.036-.066-.062-.093a1.364 1.364 0 00-.336-.228c-.035-.019-.061-.05-.098-.065a1.39 1.39 0 00-.322-.067 1.286 1.286 0 00-.207-.042l-.892-.003h-.004a1.357 1.357 0 00-.477 2.63v6.668a15.419 15.419 0 01-4.105-8.16 1.364 1.364 0 10-2.689.456 18.183 18.183 0 007.364 11.787c.056.034.114.063.174.088.048.027.097.052.148.073.152.06.313.094.477.097.2-.003.398-.05.578-.14.014-.006.029-.002.042-.009.12-.063.231-.144.328-.24.02-.019.032-.04.052-.061a1.348 1.348 0 00.268-.442c.06-.15.092-.31.096-.472v-2.899a4.842 4.842 0 012.203 1.37l2.246 2.451a1.364 1.364 0 002.01-1.844l-2.246-2.449zM20.16 1h-8.367C3.396 1 .969 3.425.969 11.81v8.367C.969 28.573 3.393 31 11.779 31h8.367c8.395 0 10.823-2.424 10.823-10.81v-8.367C30.969 3.427 28.544 1 20.159 1zm8.082 19.19c0 6.873-1.21 8.083-8.097 8.083H11.78c-6.874 0-8.084-1.211-8.084-8.098v-8.364c0-6.874 1.21-8.084 8.097-8.084h8.366c6.873 0 8.082 1.211 8.082 8.098v8.366z" fill="#C5C5C5"/></svg>